HIERARCHY
ROOT Hips
{
	OFFSET 0.000000 0.000000 0.000000
	CHANNELS 6 Xposition Yposition Zposition Xrotation Yrotation Zrotation
	JOINT LeftUpLeg_virtual
	{
		OFFSET 0.000000 0.000000 0.000000
		CHANNELS 3 Xrotation Yrotation Zrotation
		JOINT LeftUpLeg
		{
			OFFSET 15.427100 -6.655098 0.678600
			CHANNELS 3 Xrotation Yrotation Zrotation
			JOINT LeftLeg
			{
				OFFSET 4.081073 -39.591068 13.024000
				CHANNELS 3 Xrotation Yrotation Zrotation
				JOINT LeftFoot
				{
					OFFSET -4.081074 -37.707932 -15.979700
					CHANNELS 3 Xrotation Yrotation Zrotation
					JOINT LeftToeBase
					{
						OFFSET 5.346399 -15.068900 20.645000
						CHANNELS 3 Xrotation Yrotation Zrotation
						JOINT LeftToe_End
						{
							OFFSET 2.754700 0.931300 11.300900
							CHANNELS 3 Xrotation Yrotation Zrotation
							End Site
							{
								OFFSET 0 0 0
							}
						}
					}
				}
			}
		}
	}
	JOINT RightUpLeg_virtual
	{
		OFFSET 0.000000 0.000000 0.000000
		CHANNELS 3 Xrotation Yrotation Zrotation
		JOINT RightUpLeg
		{
			OFFSET -15.569500 -6.655098 0.678600
			CHANNELS 3 Xrotation Yrotation Zrotation
			JOINT RightLeg
			{
				OFFSET -4.081825 -39.591045 13.023800
				CHANNELS 3 Xrotation Yrotation Zrotation
				JOINT RightFoot
				{
					OFFSET 4.081824 -37.707954 -15.979600
					CHANNELS 3 Xrotation Yrotation Zrotation
					JOINT RightToeBase
					{
						OFFSET -5.346400 -15.068900 20.645000
						CHANNELS 3 Xrotation Yrotation Zrotation
						JOINT RightToe_End
						{
							OFFSET -2.754700 0.931300 11.300900
							CHANNELS 3 Xrotation Yrotation Zrotation
							End Site
							{
								OFFSET 0 0 0
							}
						}
					}
				}
			}
		}
	}
	JOINT Spine_virtual
	{
		OFFSET 0.000000 0.000000 0.000000
		CHANNELS 3 Xrotation Yrotation Zrotation
		JOINT Spine
		{
			OFFSET -0.279200 12.230698 -2.892100
			CHANNELS 3 Xrotation Yrotation Zrotation
			JOINT Spine1
			{
				OFFSET -0.232667 10.192268 -1.242267
				CHANNELS 3 Xrotation Yrotation Zrotation
				JOINT Spine1_split
				{
					OFFSET -0.232667 10.192268 -1.242267
					CHANNELS 3 Xrotation Yrotation Zrotation
					JOINT Spine2
					{
						OFFSET -0.232667 10.192268 -1.242267
						CHANNELS 3 Xrotation Yrotation Zrotation
						JOINT Neck_virtual
						{
							OFFSET 0.000000 0.000000 0.000000
							CHANNELS 3 Xrotation Yrotation Zrotation
							JOINT Neck
							{
								OFFSET -0.418800 17.814194 8.416900
								CHANNELS 3 Xrotation Yrotation Zrotation
								JOINT Head
								{
									OFFSET 0.000000 7.031097 3.806800
									CHANNELS 3 Xrotation Yrotation Zrotation
									JOINT HeadTop_End
									{
										OFFSET 0.000000 24.646606 12.978600
										CHANNELS 3 Xrotation Yrotation Zrotation
										End Site
										{
											OFFSET 0 0 0
										}
									}
								}
							}
						}
						JOINT LeftShoulder_virtual
						{
							OFFSET 0.000000 0.000000 0.000000
							CHANNELS 3 Xrotation Yrotation Zrotation
							JOINT LeftShoulder
							{
								OFFSET 8.476499 7.247704 -3.868750
								CHANNELS 3 Xrotation Yrotation Zrotation
								JOINT LeftShoulder_split
								{
									OFFSET 8.476499 7.247704 -3.868750
									CHANNELS 3 Xrotation Yrotation Zrotation
									JOINT LeftArm
									{
										OFFSET 9.308998 -2.777710 0.208600
										CHANNELS 3 Xrotation Yrotation Zrotation
										JOINT LeftForeArm
										{
											OFFSET 29.972298 0.000000 0.000000
											CHANNELS 3 Xrotation Yrotation Zrotation
											JOINT LeftHand
											{
												OFFSET 26.026505 0.000000 0.000000
												CHANNELS 3 Xrotation Yrotation Zrotation
												End Site
												{
													OFFSET 0 0 0
												}
											}
										}
									}
								}
							}
						}
						JOINT RightShoulder_virtual
						{
							OFFSET 0.000000 0.000000 0.000000
							CHANNELS 3 Xrotation Yrotation Zrotation
							JOINT RightShoulder
							{
								OFFSET -7.570500 7.247704 -3.868750
								CHANNELS 3 Xrotation Yrotation Zrotation
								JOINT RightShoulder_split
								{
									OFFSET -7.570500 7.247704 -3.868750
									CHANNELS 3 Xrotation Yrotation Zrotation
									JOINT RightArm
									{
										OFFSET -9.308998 -2.777710 0.208500
										CHANNELS 3 Xrotation Yrotation Zrotation
										JOINT RightForeArm
										{
											OFFSET -29.972300 0.000000 0.000000
											CHANNELS 3 Xrotation Yrotation Zrotation
											JOINT RightHand
											{
												OFFSET -26.026505 0.000000 0.000000
												CHANNELS 3 Xrotation Yrotation Zrotation
												End Site
												{
													OFFSET 0 0 0
												}
											}
										}
									}
								}
							}
						}
					}
				}
			}
		}
	}
}
MOTION
Frames: 6
Frame Time: 0.03333333
0.200943 73.785873 -2.808224 0.000000 0.000000 0.000000 -15.770560 4.248360 0.455594 -16.875297 -2.069288 16.624598 53.673932 -0.096852 -0.004011 -24.144037 0.859195 -14.014200 -1.489451 -0.314861 0.466440 0.000000 0.000000 0.000000 -16.203162 2.595516 0.324599 -12.023702 -3.746789 -19.211560 53.438256 2.970737 2.348481 -27.514401 -6.246803 13.258835 1.446878 0.301486 -0.180114 0.000000 0.000000 0.000000 -15.132950 1.560802 -0.103984 18.812913 0.173217 2.646494 5.812504 -0.021818 -0.208562 2.183240 5.333035 -0.370287 0.000000 0.000000 0.000000 6.030657 -0.179133 0.417777 -11.057595 -1.395762 2.650513 -17.327823 1.935226 -0.737858 0.000000 0.000000 0.000000 7.843210 -0.206983 0.711629 3.577922 -7.918120 -4.742015 -4.958520 -1.121049 -4.187628 -10.600669 -17.677757 -58.543956 70.557924 -61.735969 70.976471 0.000000 0.000000 0.000000 7.505207 -0.090368 -0.097030 10.066714 -5.671080 16.095643 3.729579 2.949169 -0.941564 -27.633269 11.834637 60.463307 89.692760 61.331725 -84.425318 0.000000 0.000000 0.000000 
0.077244 73.775223 -2.619850 0.000000 0.000000 0.000000 -15.858345 4.346104 0.377996 -16.798942 -2.359224 16.737170 53.578668 -0.159837 -0.008446 -24.243803 0.846400 -13.952526 -1.363714 -0.295260 0.464689 0.000000 0.000000 0.000000 -16.293066 3.034446 0.317345 -11.754346 -3.725991 -19.116567 53.614178 3.021766 2.332955 -27.743629 -6.195236 13.093675 1.732121 0.326464 -0.203647 0.000000 0.000000 0.000000 -15.297045 1.927480 -0.158542 18.747537 0.085286 2.599999 6.002168 0.001179 -0.136322 2.045357 5.433810 -0.130646 0.000000 0.000000 0.000000 6.125016 -0.202997 0.465915 -11.329402 -1.156521 2.214061 -17.488028 2.166960 -0.776781 0.000000 0.000000 0.000000 7.892315 -0.149119 0.789272 3.670030 -7.881337 -4.363926 -4.616158 -1.215647 -4.378537 -12.604107 -18.014364 -60.169083 68.128466 -61.320919 68.677559 0.000000 0.000000 0.000000 7.617851 -0.096129 -0.054948 9.888762 -5.952247 16.140773 3.802923 2.229983 0.681879 -27.185230 10.540651 60.810308 87.362825 62.442163 -82.469453 0.000000 0.000000 0.000000 
-0.058738 73.819847 -2.431320 0.000000 0.000000 0.000000 -16.146453 4.524205 0.351227 -16.615403 -2.692649 16.646008 53.537106 -0.229506 0.071587 -24.480559 0.896599 -13.963329 -1.180647 -0.232136 0.362760 0.000000 0.000000 0.000000 -16.499022 3.485376 0.310570 -11.194351 -3.937679 -19.072854 53.672699 3.187956 2.259361 -27.888861 -6.187146 13.187610 1.638593 0.312328 -0.229431 0.000000 0.000000 0.000000 -15.687117 2.499004 -0.212040 18.873553 -0.110912 2.396242 6.363229 0.098795 -0.002705 1.839913 4.711694 0.036584 0.000000 0.000000 0.000000 6.414980 -0.113575 0.472645 -11.200733 -0.891978 1.339856 -18.023148 2.292619 -0.761689 0.000000 0.000000 0.000000 8.028035 -0.025790 0.874777 3.497216 -8.586403 -4.048576 -4.408812 -1.981658 -3.591830 -12.885132 -17.216113 -60.248115 61.729569 -62.021348 62.585843 0.000000 0.000000 0.000000 7.942432 0.013702 0.068282 9.455927 -6.045693 16.239874 2.375510 1.729988 1.125065 -25.160474 11.300265 59.733829 83.456695 65.796551 -79.573814 0.000000 0.000000 0.000000 
-0.158311 73.958946 -2.288151 0.000000 0.000000 0.000000 -16.585477 4.731610 0.397731 -16.250521 -2.938020 16.286364 53.485091 -0.256610 0.244344 -24.762004 1.000950 -13.967413 -1.035167 -0.145259 0.200164 0.000000 0.000000 0.000000 -16.784165 3.837812 0.332500 -10.370166 -4.374850 -19.095139 53.560892 3.378776 2.172964 -28.051688 -6.258073 13.322142 1.344612 0.263568 -0.229805 0.000000 0.000000 0.000000 -16.209137 3.011086 -0.210358 19.123147 -0.405328 2.091752 6.811090 0.227348 0.122671 1.410607 3.413355 0.648041 0.000000 0.000000 0.000000 6.848080 0.003350 0.439147 -10.491824 -0.603539 0.199168 -18.659631 2.403025 -0.815951 0.000000 0.000000 0.000000 8.213947 0.088120 0.931485 3.126936 -9.834107 -3.614747 -4.300702 -3.316266 -2.403375 -11.228323 -15.767391 -58.195835 53.457271 -63.994064 54.629216 0.000000 0.000000 0.000000 8.368375 0.141063 0.210364 8.889047 -5.932138 16.090228 0.040593 1.391143 0.808328 -20.941445 13.580233 56.522332 80.170547 71.128866 -77.481905 0.000000 0.000000 0.000000 
-0.195558 74.278702 -2.139973 0.000000 0.000000 0.000000 -17.135182 4.878008 0.546683 -15.635739 -3.015137 15.672964 53.219997 -0.211113 0.471988 -24.948062 1.124964 -13.875177 -1.000613 -0.062358 0.039612 0.000000 0.000000 0.000000 -17.140098 4.109004 0.438737 -9.380601 -5.000131 -19.149987 53.157330 3.443698 2.126605 -28.184383 -6.427804 13.227963 1.192352 0.202464 -0.191626 0.000000 0.000000 0.000000 -16.844785 3.331655 -0.120713 19.367150 -0.809416 1.743181 7.229707 0.294761 0.196131 0.628576 2.166073 1.178383 0.000000 0.000000 0.000000 7.406046 0.026756 0.368441 -8.873990 -0.262240 -0.962607 -19.127088 2.501728 -0.967517 0.000000 0.000000 0.000000 8.422518 0.095758 0.954350 2.670133 -11.302064 -2.870918 -4.375692 -4.068357 -1.791008 -8.044686 -14.325591 -53.785134 44.207716 -67.324464 45.753760 0.000000 0.000000 0.000000 8.826449 0.145066 0.329100 8.261239 -5.682184 15.452722 -1.713978 1.377370 0.099663 -14.318157 16.045795 50.901920 77.273086 77.723899 -75.457860 0.000000 0.000000 0.000000 
-0.169513 74.875946 -2.061649 0.000000 0.000000 0.000000 -17.662891 4.938598 0.791693 -14.762170 -2.957628 14.897520 52.613798 -0.120526 0.729203 -24.872680 1.201399 -13.706172 -1.083716 -0.008639 -0.080344 0.000000 0.000000 0.000000 -17.480044 4.318101 0.645493 -8.382529 -5.698595 -19.196358 52.381534 3.355672 2.160167 -28.165463 -6.646801 12.908786 1.242180 0.158174 -0.122284 0.000000 0.000000 0.000000 -17.494645 3.414540 0.076992 19.475164 -1.292073 1.414171 7.538267 0.202657 0.209335 -0.268276 1.395051 1.096508 0.000000 0.000000 0.000000 8.038380 -0.093892 0.293237 -6.065491 0.067791 -1.892735 -19.216725 2.545683 -1.263030 0.000000 0.000000 0.000000 8.613167 -0.064247 0.952384 2.284937 -12.717303 -1.719376 -4.128597 -4.218953 -1.843635 -3.978081 -13.024865 -46.963988 33.506924 -71.779312 35.453798 0.000000 0.000000 0.000000 9.201362 -0.035853 0.413948 7.600308 -5.194550 14.105692 -2.808354 1.575335 -0.353930 -6.270523 16.812582 43.178014 65.376283 84.354721 -63.863423 0.000000 0.000000 0.000000 
